<svg xmlns="http://www.w3.org/2000/svg" version="1.1" xmlns:xlink="http://www.w3.org/1999/xlink" xmlns:svgjs="http://svgjs.dev/svgjs" width="1500" height="1500" viewBox="0 0 1500 1500"><rect width="1500" height="1500" fill="#000000"></rect><g transform="matrix(0.6666666666666666,0,0,0.6666666666666666,249.54172296285782,336.76966363410514)"><svg viewBox="0 0 301 253" data-background-color="#010536" preserveAspectRatio="xMidYMid meet" height="1260" width="1500" xmlns="http://www.w3.org/2000/svg" xmlns:xlink="http://www.w3.org/1999/xlink"><g id="tight-bounds" transform="matrix(1,0,0,1,0.1379413881797973,5.690623634511695)"><svg viewBox="0 0 300.7241172236404 247.2" height="247.2" width="300.7241172236404"><g><svg viewBox="0 0 395.52 325.1237210459219" height="247.2" width="300.7241172236404"><g transform="matrix(1,0,0,1,0,171.66072903346225)"><svg viewBox="0 0 395.52 153.46299201245967" height="153.46299201245967" width="395.52"><g id="textblocktransform"><svg viewBox="0 0 395.52 153.46299201245967" height="153.46299201245967" width="395.52" id="textblock"><g><svg viewBox="0 0 395.52 153.46299201245967" height="153.46299201245967" width="395.52"><g transform="matrix(1,0,0,1,0,0)"><svg width="395.52" viewBox="16.979999999999997 -37.84 219.45999999999995 80.93" height="153.46299201245967" data-palette-color="#ffff00"><svg></svg><svg></svg><g class="wordmark-text-0" data-fill-palette-color="primary" id="text-0"><path transform="translate(15.37,0)" d="M11.82-23.19v0c-1.24 0-1.86 1.113-1.86 3.34v0 3.08c0 5.66 0.06 9.153 0.18 10.48 0.127 1.327 0.25 2.25 0.37 2.77 0.12 0.527 0.287 0.993 0.5 1.4v0c0.34 0.667 1.023 1.373 2.05 2.12v0h-10.37c0.6-1.207 0.963-2.233 1.09-3.08 0.133-0.847 0.233-1.74 0.3-2.68v0c0.127-1.92 0.19-4.5 0.19-7.74v0c0-3.92-0.063-7.5-0.19-10.74v0l-0.27-6.72c-0.067-1.693-0.213-2.873-0.44-3.54v0c-0.36-1.053-0.947-2.003-1.76-2.85v0h13.65c3.68 0 6.34 0.39 7.98 1.17v0c1.74 0.813 2.61 2.203 2.61 4.17v0c0 2.413-1.033 4.407-3.1 5.98v0c-2.44 1.893-6.083 2.84-10.93 2.84zM17.91-27.67c0.513-0.513 0.89-1.06 1.13-1.64 0.247-0.58 0.37-1.117 0.37-1.61 0-0.5-0.07-0.993-0.21-1.48-0.14-0.487-0.413-0.917-0.82-1.29v0c-0.907-0.813-2.467-1.22-4.68-1.22v0c-1.34 0-2.213 0.163-2.62 0.49v0c-0.747 0.613-1.12 1.823-1.12 3.63v0c0 2.04 0.163 3.3 0.49 3.78 0.327 0.48 0.7 0.787 1.12 0.92 0.427 0.14 1.073 0.21 1.94 0.21 0.873 0 1.697-0.17 2.47-0.51 0.773-0.34 1.417-0.767 1.93-1.28zM39.18-23.19v0c-1.887 0-2.83 1.113-2.83 3.34v0c0 9.247 0.157 14.69 0.47 16.33v0c0.173 0.993 0.4 1.737 0.68 2.23v0l0.73 1.29h-8.66c0.52-1.24 0.823-2.273 0.91-3.1 0.093-0.833 0.17-1.72 0.23-2.66v0c0.133-1.92 0.2-4.5 0.2-7.74v0c0-3.92-0.067-7.5-0.2-10.74v0l-0.27-6.72c-0.06-1.693-0.207-2.873-0.44-3.54v0c-0.353-1.053-0.937-2.003-1.75-2.85v0h12.91c3.94 0 6.79 0.39 8.55 1.17v0c1.853 0.813 2.78 2.203 2.78 4.17v0c0 1.727-0.643 3.347-1.93 4.86v0c-1.207 1.4-2.783 2.517-4.73 3.35v0c0.24 6.247 2.2 12.243 5.88 17.99v0c1.58 2.487 3.19 4.423 4.83 5.81v0h-9.15c-1.593-2.18-3.067-6.6-4.42-13.26v0c-0.453-2.307-0.75-4.227-0.89-5.76-0.14-1.527-0.253-2.45-0.34-2.77-0.093-0.32-0.237-0.577-0.43-0.77v0c-0.393-0.42-1.103-0.63-2.13-0.63zM44.81-27.55c0.447-0.48 0.763-0.997 0.95-1.55 0.187-0.553 0.28-1.087 0.28-1.6 0-0.513-0.067-1.027-0.2-1.54-0.14-0.513-0.413-0.963-0.82-1.35v0c-0.893-0.88-2.457-1.32-4.69-1.32v0c-0.827 0-1.497 0.033-2.01 0.1-0.513 0.06-0.917 0.237-1.21 0.53v0c-0.507 0.493-0.76 1.74-0.76 3.74v0c0 1.753 0.187 2.877 0.56 3.37v0c0.673 0.86 1.683 1.29 3.03 1.29 1.353 0 2.39-0.157 3.11-0.47 0.727-0.32 1.313-0.72 1.76-1.2zM83.13 0h-8.52c0.213-1.027 0.32-1.843 0.32-2.45 0-0.613-0.013-1.073-0.04-1.38-0.027-0.313-0.06-0.643-0.1-0.99-0.04-0.353-0.087-0.743-0.14-1.17-0.06-0.433-0.113-0.937-0.16-1.51v0c-0.373-3.887-1.7-7.083-3.98-9.59v0c-1.013-1.107-2.103-1.95-3.27-2.53-1.173-0.573-2.14-0.86-2.9-0.86-0.753 0-1.333 0.047-1.74 0.14v0c-0.913 2.733-1.37 5.59-1.37 8.57v0c0 2.64 0.14 4.61 0.42 5.91v0c0.433 1.953 1.107 3.913 2.02 5.88v0h-7.3c0.393-0.973 0.59-3.027 0.59-6.16 0-3.133 0.237-6.063 0.71-8.79 0.467-2.727 1.08-5.157 1.84-7.29 0.753-2.133 1.6-4 2.54-5.6 0.933-1.6 1.87-3 2.81-4.2 0.933-1.193 1.813-2.22 2.64-3.08 0.833-0.853 1.527-1.603 2.08-2.25v0h7.69c-0.7 0.793-1.05 1.907-1.05 3.34v0c0 0.653 0.107 1.72 0.32 3.2v0l0.61 4.44c2.227 15.367 4.22 24.157 5.98 26.37zM63.6-22.92v0c0.633-0.247 1.3-0.37 2-0.37 0.7 0 1.33 0.05 1.89 0.15 0.56 0.093 1.12 0.253 1.68 0.48v0c1.187 0.46 2.177 1.187 2.97 2.18v0c-0.793-4.187-1.28-6.743-1.46-7.67v0l-0.86-4.27-1.39 1.66c-1.953 2.34-3.563 4.953-4.83 7.84zM108.79-32.01v0c0 2.733-2.003 4.98-6.01 6.74v0c3.32 0.62 5.487 2.127 6.5 4.52v0c0.327 0.793 0.49 1.847 0.49 3.16 0 1.307-0.193 2.723-0.58 4.25-0.38 1.52-0.98 2.95-1.8 4.29-0.827 1.347-1.873 2.573-3.14 3.68-1.273 1.107-2.797 2.06-4.57 2.86v0c-3.727 1.673-8.333 2.51-13.82 2.51v0c0.527-1.24 0.833-2.273 0.92-3.1 0.087-0.833 0.163-1.72 0.23-2.66v0c0.133-1.92 0.2-4.5 0.2-7.74v0c0-3.92-0.067-7.5-0.2-10.74v0l-0.27-6.72c-0.06-1.693-0.207-2.873-0.44-3.54v0c-0.353-1.053-0.937-2.003-1.75-2.85v0h12.91c3.94 0 6.79 0.39 8.55 1.17v0c1.853 0.813 2.78 2.203 2.78 4.17zM92.9-19.36v0l0.02 12.4c0 0.927 0.103 1.627 0.31 2.1 0.2 0.473 0.61 0.71 1.23 0.71v0c2.507 0 4.597-1.187 6.27-3.56v0c1.727-2.447 2.59-5.623 2.59-9.53v0c0-1.933-0.43-3.373-1.29-4.32v0c-1.14-1.253-3.183-1.88-6.13-1.88v0c-0.667 0-1.197 0.03-1.59 0.09-0.387 0.053-0.687 0.21-0.9 0.47v0c-0.34 0.427-0.51 1.6-0.51 3.52zM100.96-27.83c0.5-0.487 0.857-1.007 1.07-1.56 0.207-0.553 0.31-1.07 0.31-1.55 0-0.487-0.067-0.973-0.2-1.46-0.14-0.487-0.413-0.917-0.82-1.29v0c-0.913-0.813-2.477-1.22-4.69-1.22v0c-1.673 0-2.673 0.167-3 0.5-0.327 0.333-0.53 0.777-0.61 1.33-0.08 0.553-0.12 1.267-0.12 2.14 0 0.867 0.023 1.59 0.07 2.17 0.047 0.573 0.177 1.057 0.39 1.45v0c0.407 0.8 1.24 1.2 2.5 1.2 1.26 0 2.303-0.163 3.13-0.49 0.82-0.327 1.477-0.733 1.97-1.22zM132.01-14.53v0l-0.03-6.69c0-0.907-0.147-1.523-0.44-1.85v0c-0.533-0.6-1.527-0.9-2.98-0.9v0h-3.85c-2.02 0-3.127 0.567-3.32 1.7v0c-0.053 0.327-0.08 0.677-0.08 1.05v0l-0.02 7.33c0 6.313 0.327 10.267 0.98 11.86v0c0.26 0.62 0.667 1.297 1.22 2.03v0h-9.16c0.52-1.24 0.827-2.273 0.92-3.1 0.087-0.833 0.18-1.86 0.28-3.08v0c0.18-2.553 0.27-5.473 0.27-8.76 0-3.287-0.01-5.553-0.03-6.8-0.013-1.247-0.03-2.463-0.05-3.65v0c-0.113-4.933-0.267-7.893-0.46-8.88-0.193-0.98-0.357-1.64-0.49-1.98v0l-0.44-1.1h9.16c-1.173 1.3-1.827 3.057-1.96 5.27v0c-0.047 0.667-0.07 1.367-0.07 2.1 0 0.733 0.07 1.307 0.21 1.72 0.14 0.413 0.37 0.72 0.69 0.92v0c0.44 0.293 1.473 0.44 3.1 0.44v0h2.32c1.66 0 2.687-0.123 3.08-0.37v0c0.653-0.427 0.98-1.347 0.98-2.76v0c0-3.467-0.683-5.907-2.05-7.32v0h9.15c-0.487 1.073-0.783 2.063-0.89 2.97-0.107 0.913-0.183 1.79-0.23 2.63-0.053 0.84-0.103 1.813-0.15 2.92-0.047 1.107-0.087 2.253-0.12 3.44v0c-0.047 2.767-0.07 5.273-0.07 7.52v0c0 9.133 0.34 14.723 1.02 16.77v0c0.113 0.34 0.26 0.707 0.44 1.1v0h-9.15c0.813-1.093 1.307-2.033 1.48-2.82 0.18-0.787 0.32-1.72 0.42-2.8v0c0.213-2.067 0.32-5.037 0.32-8.91zM159.72-19.73v0l0.02 9.23c0 2.947-0.74 5.437-2.22 7.47v0c-1.74 2.347-4.167 3.52-7.28 3.52v0c-2.44 0-4.393-0.813-5.86-2.44v0c-1.333-1.48-2-3.27-2-5.37v0c0.733-1.693 1.517-2.99 2.35-3.89v0c1.367-1.48 2.503-2.3 3.41-2.46v0c-0.26 1.48-0.39 2.84-0.39 4.08 0 1.233 0.053 2.277 0.16 3.13 0.107 0.853 0.283 1.617 0.53 2.29v0c0.533 1.48 1.38 2.22 2.54 2.22v0c1.007 0 1.77-0.653 2.29-1.96v0c0.44-1.073 0.66-2.513 0.66-4.32v0-5.86c0-7.06-0.05-13.007-0.15-17.84v0c-0.027-1.287-0.217-2.35-0.57-3.19-0.347-0.84-0.937-1.583-1.77-2.23v0h9.64c-0.487 0.873-0.783 1.817-0.89 2.83-0.107 1.007-0.2 2.113-0.28 3.32v0c-0.127 2.293-0.19 6.117-0.19 11.47zM179.22-1.95v0c3.127 0 5.147-3.81 6.06-11.43v0c0.307-2.573 0.46-5.6 0.46-9.08v0c0-8.627-2.19-12.94-6.57-12.94v0c-4.373 0-6.56 4.313-6.56 12.94v0c0 10.173 1.31 16.593 3.93 19.26v0c0.813 0.833 1.707 1.25 2.68 1.25zM179.17 0.49v0c-4.327 0-7.59-2.037-9.79-6.11v0c-2.113-3.92-3.17-9.533-3.17-16.84v0c0-7.6 2.337-12.387 7.01-14.36v0c1.64-0.68 3.623-1.02 5.95-1.02v0c6.673 0 10.753 2.96 12.24 8.88v0c0.487 1.907 0.73 4.357 0.73 7.35 0 3-0.26 5.92-0.78 8.76-0.52 2.84-1.32 5.25-2.4 7.23v0c-2.193 4.073-5.457 6.11-9.79 6.11zM196.14-26.37v0c-0.387-0.94-0.58-2.053-0.58-3.34 0-1.287 0.047-2.34 0.14-3.16 0.1-0.827 0.23-1.573 0.39-2.24v0c0.393-1.493 0.873-2.24 1.44-2.24v0h21.51c0.947 0 1.583 1.4 1.91 4.2v0c0.08 0.78 0.12 1.583 0.12 2.41v0c0 1.953-0.213 3.41-0.64 4.37v0c-1.4-4.347-3.213-7.13-5.44-8.35v0c-0.507-0.293-1.003-0.44-1.49-0.44-0.487 0-0.87 0.127-1.15 0.38-0.273 0.253-0.5 0.657-0.68 1.21v0c-0.293 0.98-0.44 2.153-0.44 3.52v0 9.15l0.02 7.47v7.08c0 1.593 0.21 2.77 0.63 3.53 0.413 0.76 0.837 1.333 1.27 1.72 0.427 0.393 0.933 0.76 1.52 1.1v0h-12.47c1.173-0.96 1.92-1.75 2.24-2.37v0c0.607-1.12 0.91-2.447 0.91-3.98v0-21.99c0-2.56-0.1-4.21-0.3-4.95-0.193-0.74-0.427-1.237-0.7-1.49-0.28-0.253-0.663-0.38-1.15-0.38-0.487 0-0.983 0.143-1.49 0.43-0.507 0.287-1 0.66-1.48 1.12-0.48 0.467-0.937 1.007-1.37 1.62-0.427 0.607-0.82 1.237-1.18 1.89v0c-0.7 1.287-1.213 2.53-1.54 3.73z" fill="#ffffff" fill-rule="nonzero" stroke="none" stroke-width="1" stroke-linecap="butt" stroke-linejoin="miter" stroke-miterlimit="10" stroke-dasharray="" stroke-dashoffset="0" font-family="none" font-weight="none" font-size="none" text-anchor="none" style="mix-blend-mode: normal" data-fill-palette-color="primary" opacity="1"></path><path transform="translate(62.55,42.58)" d="M8.4-12.94v0c-0.213 1.693-0.32 3.04-0.32 4.04 0 1 0.123 1.923 0.37 2.77 0.24 0.847 0.59 1.58 1.05 2.2v0c0.973 1.32 2.21 1.98 3.71 1.98v0c2.86 0 4.29-1.58 4.29-4.74v0c0-2.54-1.47-5.233-4.41-8.08v0l-2.54-2.47c-2.233-2.147-3.757-3.87-4.57-5.17v0c-1.613-2.573-2.42-5.13-2.42-7.67v0c0-2.067 0.67-3.8 2.01-5.2v0c1.607-1.707 3.923-2.56 6.95-2.56v0c1.193 0 2.09 0.057 2.69 0.17v0c1.12 0.213 1.87 0.32 2.25 0.32v0c0.94 0 1.67-0.293 2.19-0.88v0c0.2-0.213 0.413-0.49 0.64-0.83v0c1.187 0.667 1.78 3.117 1.78 7.35v0c0 2.7-0.27 4.693-0.81 5.98v0c-0.173 0.44-0.377 0.717-0.61 0.83v0c-0.26-2.46-1.057-4.657-2.39-6.59v0c-1.56-2.28-3.367-3.42-5.42-3.42v0c-1.753 0-2.837 0.803-3.25 2.41v0c-0.113 0.46-0.17 1.027-0.17 1.7 0 0.673 0.203 1.443 0.61 2.31 0.407 0.86 0.94 1.717 1.6 2.57 0.66 0.86 1.423 1.72 2.29 2.58v0c2.6 2.667 4.327 4.473 5.18 5.42 0.86 0.947 1.623 1.923 2.29 2.93v0c1.46 2.26 2.19 4.45 2.19 6.57v0c0 2.553-0.99 4.667-2.97 6.34v0c-2.053 1.713-4.69 2.57-7.91 2.57v0c-2.673 0-4.97-0.667-6.89-2v0c-2.113-1.467-3.17-3.403-3.17-5.81v0c0.633-2.267 2.017-3.927 4.15-4.98v0c0.567-0.293 1.103-0.507 1.61-0.64zM29.13-37.35h8.42c-0.6 1.513-0.95 3.03-1.05 4.55-0.1 1.52-0.173 2.827-0.22 3.92-0.047 1.087-0.087 2.217-0.12 3.39v0c-0.053 2.733-0.08 5.223-0.08 7.47v0c0 9.213 0.343 14.863 1.03 16.95v0c0.113 0.353 0.26 0.71 0.44 1.07v0h-8.42c0.5-1.107 0.8-2.107 0.9-3 0.1-0.9 0.19-1.967 0.27-3.2v0c0.193-2.553 0.29-5.5 0.29-8.84 0-3.333-0.007-5.617-0.02-6.85-0.02-1.227-0.047-2.427-0.08-3.6v0c-0.113-5.713-0.453-9.343-1.02-10.89v0zM57.57-13.18l-7.37-13.41c-0.033 1.693-0.05 3.623-0.05 5.79v0c0 3.073 0.057 6.593 0.17 10.56 0.113 3.96 0.203 6.213 0.27 6.76 0.06 0.547 0.14 1.023 0.24 1.43v0c0.16 0.667 0.413 1.35 0.76 2.05v0h-6.55c0.493-0.993 0.793-1.967 0.9-2.92 0.1-0.953 0.183-1.9 0.25-2.84v0c0.133-1.92 0.2-4.5 0.2-7.74v0c0-3.92-0.067-7.5-0.2-10.74v0l-0.27-6.72c-0.093-2.473-0.483-4.23-1.17-5.27v0c-0.273-0.393-0.613-0.767-1.02-1.12v0h7.59c0.96 2.213 1.977 4.41 3.05 6.59v0l3.32 6.49 7.13 13.11c0.013-1.027 0.02-2.123 0.02-3.29v0-3.81c0-8.14-0.497-14.017-1.49-17.63v0c-0.193-0.667-0.403-1.153-0.63-1.46v0l7.35-0.03c-0.813 1.627-1.327 6.21-1.54 13.75v0c-0.033 1.167-0.05 2.29-0.05 3.37v0l0.03 2.05v9.96c0 4.213 0.03 6.963 0.09 8.25v0h-3.95zM91.24-11.94v0l-0.03-3.17c0-1.84-0.18-3.067-0.54-3.68-0.353-0.607-0.727-1.053-1.12-1.34-0.393-0.287-0.873-0.577-1.44-0.87v0h10.72c-1.027 0.947-1.677 2.153-1.95 3.62v0c-0.267 1.4-0.4 3.563-0.4 6.49v0c0 5.7 0.343 9.493 1.03 11.38v0c-0.227 0.013-0.453 0.02-0.68 0.02v0h-0.66c-7.167 0-12.597-2.303-16.29-6.91v0c-3.533-4.407-5.3-10.663-5.3-18.77v0c0-4.007 1.183-7.077 3.55-9.21v0c2.18-1.98 5.1-2.97 8.76-2.97v0l4.3 0.05c2.26 0 3.837-0.277 4.73-0.83v0c0.373-0.247 0.693-0.557 0.96-0.93v0c0.407 0.78 0.61 1.853 0.61 3.22 0 1.367-0.043 2.47-0.13 3.31-0.08 0.84-0.2 1.657-0.36 2.45v0c-0.347 1.693-0.877 3.013-1.59 3.96v0c-0.62-3.26-1.393-5.507-2.32-6.74v0c-1.04-1.367-2.667-2.05-4.88-2.05v0c-2.8 0-4.777 1.123-5.93 3.37v0c-0.833 1.64-1.25 4.13-1.25 7.47v0c0 4.573 0.707 8.96 2.12 13.16v0c0.993 2.947 2.233 5.037 3.72 6.27v0c0.76 0.653 1.553 0.98 2.38 0.98 0.82 0 1.343-0.237 1.57-0.71 0.227-0.473 0.35-1.28 0.37-2.42v0c0.033-2.247 0.05-3.963 0.05-5.15zM120.8-14.53v0l-0.02-6.69c0-0.907-0.147-1.523-0.44-1.85v0c-0.54-0.6-1.533-0.9-2.98-0.9v0h-3.86c-2.02 0-3.127 0.567-3.32 1.7v0c-0.047 0.327-0.07 0.677-0.07 1.05v0l-0.03 7.33c0 6.313 0.327 10.267 0.98 11.86v0c0.26 0.62 0.667 1.297 1.22 2.03v0h-9.15c0.52-1.24 0.823-2.273 0.91-3.1 0.087-0.833 0.18-1.86 0.28-3.08v0c0.18-2.553 0.27-5.473 0.27-8.76 0-3.287-0.007-5.553-0.02-6.8-0.02-1.247-0.037-2.463-0.05-3.65v0c-0.113-4.933-0.27-7.893-0.47-8.88-0.193-0.98-0.357-1.64-0.49-1.98v0l-0.43-1.1h9.15c-1.173 1.3-1.823 3.057-1.95 5.27v0c-0.053 0.667-0.08 1.367-0.08 2.1 0 0.733 0.07 1.307 0.21 1.72 0.14 0.413 0.373 0.72 0.7 0.92v0c0.44 0.293 1.473 0.44 3.1 0.44v0h2.32c1.66 0 2.683-0.123 3.07-0.37v0c0.653-0.427 0.98-1.347 0.98-2.76v0c0-3.467-0.683-5.907-2.05-7.32v0h9.15c-0.487 1.073-0.783 2.063-0.89 2.97-0.107 0.913-0.183 1.79-0.23 2.63-0.047 0.84-0.097 1.813-0.15 2.92-0.047 1.107-0.087 2.253-0.12 3.44v0c-0.047 2.767-0.07 5.273-0.07 7.52v0c0 9.133 0.34 14.723 1.02 16.77v0c0.12 0.34 0.267 0.707 0.44 1.1v0h-9.15c0.813-1.093 1.31-2.033 1.49-2.82 0.18-0.787 0.317-1.72 0.41-2.8v0c0.213-2.067 0.32-5.037 0.32-8.91z" fill="#ffffff" fill-rule="nonzero" stroke="none" stroke-width="1" stroke-linecap="butt" stroke-linejoin="miter" stroke-miterlimit="10" stroke-dasharray="" stroke-dashoffset="0" font-family="none" font-weight="none" font-size="none" text-anchor="none" style="mix-blend-mode: normal" data-fill-palette-color="primary" opacity="1"></path></g></svg></g></svg></g></svg></g></svg></g><g transform="matrix(1,0,0,1,118.76826864909181,0)"><svg viewBox="0 0 157.98346270181636 154.82267412169008" height="154.82267412169008" width="157.98346270181636"><g><svg xmlns="http://www.w3.org/2000/svg" xmlns:xlink="http://www.w3.org/1999/xlink" version="1.1" x="0" y="0" viewBox="11.000750000000002 12 75.51075000000002 74" enable-background="new 0 0 100 100" xml:space="preserve" height="154.82267412169008" width="157.98346270181636" class="icon-icon-0" data-fill-palette-color="accent" id="icon-0"><g fill="#ffff00" data-fill-palette-color="accent"><path d="M70.659 28.521L76.525 29.704C77.339 29.868 77.339 31.031 76.525 31.195L70.659 32.378A0.76 0.76 0 0 0 70.064 32.973L68.881 38.839C68.717 39.653 67.554 39.653 67.39 38.839L66.207 32.973A0.76 0.76 0 0 0 65.612 32.378L59.746 31.195C58.932 31.031 58.932 29.868 59.746 29.704L65.612 28.521A0.76 0.76 0 0 0 66.207 27.926L67.39 22.06C67.554 21.246 68.717 21.246 68.881 22.06L70.064 27.926A0.76 0.76 0 0 0 70.659 28.521" fill="#ffffff" data-fill-palette-color="accent"></path><path d="M82.194 21.097L86.105 21.886C86.647 21.995 86.647 22.771 86.105 22.88L82.194 23.669A0.51 0.51 0 0 0 81.797 24.066L81.008 27.977C80.899 28.519 80.123 28.519 80.014 27.977L79.225 24.066A0.51 0.51 0 0 0 78.828 23.669L74.917 22.88C74.375 22.771 74.375 21.995 74.917 21.886L78.828 21.097C79.028 21.057 79.184 20.9 79.225 20.7L80.014 16.789C80.123 16.247 80.899 16.247 81.008 16.789L81.797 20.7C81.838 20.9 81.994 21.057 82.194 21.097" fill="#ffffff" data-fill-palette-color="accent"></path><path d="M25.195 69.597L32.188 71.007C33.271 71.225 33.271 72.774 32.188 72.992L25.195 74.402C24.795 74.483 24.483 74.795 24.403 75.194L22.993 82.187C22.775 83.27 21.226 83.27 21.008 82.187L19.598 75.194A1.01 1.01 0 0 0 18.806 74.402L11.813 72.992C10.73 72.774 10.73 71.225 11.813 71.007L18.806 69.597C19.206 69.516 19.518 69.204 19.598 68.805L21.008 61.812C21.226 60.729 22.775 60.729 22.993 61.812L24.403 68.805C24.483 69.204 24.796 69.517 25.195 69.597" fill="#ffffff" data-fill-palette-color="accent"></path><g fill="#ffff00" data-fill-palette-color="accent"><path d="M78 45.248V45H77.902A30 30 0 0 0 71.64 35.279L70.842 39.236C70.78 39.543 70.668 39.826 70.52 40.083 71.7 41.602 72.736 43.24 73.56 45.001H65.902C64.966 40.552 63.466 36.673 61.536 33.598L59.351 33.157C58.047 32.894 57.136 31.781 57.136 30.451S58.047 28.008 59.351 27.745L59.755 27.663A29.8 29.8 0 0 0 53 26.168V15A3 3 0 1 0 47 15V26.15C31.861 27.66 20 40.47 20 56 20 57.213 20.081 58.407 20.221 59.583A3 3 0 0 1 22 59C23.452 59 24.666 59.994 24.953 61.417L26.234 67.766 27.392 68H34.317C35.411 72.679 37.145 76.68 39.348 79.717A26 26 0 0 1 32.286 75.013L27.623 75.953C33.121 82.113 41.114 86 50 86 66.542 86 80 72.542 80 56 80 52.212 79.287 48.589 78 45.248M34.099 45H26.441A26.1 26.1 0 0 1 39.348 32.283C36.991 35.534 35.173 39.892 34.099 45M48 81.693C43.845 80.41 40.343 75.189 38.468 68H48zM48 64H37.63A50 50 0 0 1 37 56C37 53.574 37.17 51.228 37.481 49H48zM52 81.693V68H61.532C59.657 75.189 56.155 80.41 52 81.693M52 45V30.307C56.345 31.649 59.978 37.297 61.78 45zM74.74 64H66.433C66.802 61.47 67 58.792 67 56 67 53.572 66.848 51.233 66.568 49H75.039A26 26 0 0 1 74.74 64" fill="#ffffff" data-fill-palette-color="accent"></path></g></g></svg></g></svg></g><g></g></svg></g><defs></defs></svg><rect width="300.7241172236404" height="247.2" fill="none" stroke="none" visibility="hidden"></rect></g></svg></g></svg>